<?xml version="1.0" encoding="UTF-8" standalone="no"?>
<svg
   width="64"
   height="56.316296"
   viewBox="0 0 64 56.316296"
   version="1.1"
   id="svg1"
   xmlns="http://www.w3.org/2000/svg"
   xmlns:svg="http://www.w3.org/2000/svg">
  <path
     style="display:inline;fill:#b76666;fill-opacity:1;stroke:#000000;stroke-width:1.05268;stroke-linecap:square;stroke-linejoin:miter;stroke-dasharray:none;stroke-opacity:1;paint-order:markers fill stroke"
     d="m 9.8654792,55.136325 18.2399998,-20.54 -8.92,-10.81 -8.74,5.7 c 1.34,3.18 4.35,6.66 4.09,12.09 -2.3,-4.3 -5.0999998,-10.48 -12.4599998,-13.31 5.44,-0.78 14.2699998,-9.11 14.2699998,-9.11 0,0 -6.9399998,-7.09 -8.4999998,-13.37 2.5599998,2.57 11.3199998,10.69 11.3199998,10.69 4.23,-3.38 10.77,-10.74 12.88,-15.28 3.86,7.49 10.21,12.92 12.87,15.32 3.47,-3.74 8.44,-8.86 11.34,-10.66 -1.78,3.85 -6.18,9.5 -8.36,13.34 0,0 7.69,7.36 14.06,9.22 -6.97,1.69 -9.04,6.89 -12.23,12.85 -0.49,-3.32 3.15,-8.58 3.76,-11.82 l -8.64,-5.64 -8.74,10.87 c 0,0 12.65,13.69 18.23,20.5 0,0 -12.91,1.42 -17.66,-0.08 4.49,-0.96 7.41,-2.09 7.41,-2.09 l -12.02,-13.71 -12.11,13.72 c 0,0 2.95,0.85 7.48,2.08 -4.2,1.13 -17.5699998,0.04 -17.5699998,0.04 z m 22.1499998,-42.46 -8.54,8.07 8.5,9.38 8.92,-9.32 z"
     id="path1" />
</svg>
