<?xml version="1.0" encoding="UTF-8" standalone="no"?>
<svg
   data-stacking-context="true"
   aria-owns="root"
   width="20"
   height="20"
   viewBox="32 32 20 20"
   version="1.1"
   id="svg15"
   sodipodi:docname="generated-html.svg"
   inkscape:version="1.4 (86a8ad7, 2024-10-11)"
   xmlns:inkscape="http://www.inkscape.org/namespaces/inkscape"
   xmlns:sodipodi="http://sodipodi.sourceforge.net/DTD/sodipodi-0.dtd"
   xmlns="http://www.w3.org/2000/svg"
   xmlns:svg="http://www.w3.org/2000/svg">
  <defs
     id="defs15" />
  <sodipodi:namedview
     id="namedview15"
     pagecolor="#ffffff"
     bordercolor="#666666"
     borderopacity="1.0"
     inkscape:showpageshadow="2"
     inkscape:pageopacity="0.0"
     inkscape:pagecheckerboard="true"
     inkscape:deskcolor="#d1d1d1"
     inkscape:zoom="32"
     inkscape:cx="6.53125"
     inkscape:cy="10.640625"
     inkscape:window-width="1920"
     inkscape:window-height="1017"
     inkscape:window-x="-8"
     inkscape:window-y="-8"
     inkscape:window-maximized="1"
     inkscape:current-layer="svg15" />
  <!-- Generated by dom-to-svg from about:srcdoc -->
  <style
     id="style1" />
  <path
     d="m 18,2 c -1.64501,0 -3,1.3549904 -3,3 0,0.1909529 0.02179,0.3771224 0.05664,0.5585938 L 7.921875,9.7207031 C 7.3985399,9.2778539 6.7320771,9 6,9 4.3549904,9 3,10.35499 3,12 c 0,1.64501 1.3549904,3 3,3 0.7320771,0 1.3985399,-0.277854 1.921875,-0.720703 l 7.134766,4.160156 C 15.021555,18.621514 15,18.808386 15,19 c 0,1.64501 1.35499,3 3,3 1.64501,0 3,-1.35499 3,-3 0,-1.64501 -1.35499,-3 -3,-3 -0.73252,0 -1.398407,0.279328 -1.921875,0.722656 L 8.9433594,12.558594 C 8.9782095,12.377122 9,12.190953 9,12 9,11.809047 8.9782095,11.622878 8.9433594,11.441406 L 16.078125,7.2792969 C 16.60146,7.7221461 17.267923,8 18,8 19.64501,8 21,6.6450096 21,5 21,3.3549904 19.64501,2 18,2 Z m 0,2 c 0.564129,0 1,0.4358706 1,1 0,0.5641294 -0.435871,1 -1,1 C 17.435871,6 17,5.5641294 17,5 17,4.4358706 17.435871,4 18,4 Z M 6,11 c 0.5641294,0 1,0.435871 1,1 0,0.564129 -0.4358706,1 -1,1 -0.5641294,0 -1,-0.435871 -1,-1 0,-0.564129 0.4358706,-1 1,-1 z m 12,7 c 0.564129,0 1,0.435871 1,1 0,0.564129 -0.435871,1 -1,1 -0.564129,0 -1,-0.435871 -1,-1 0,-0.564129 0.435871,-1 1,-1 z"
     alignment-baseline="baseline"
     color="#000000"
     fill="#ffffff"
     stroke="none"
     id="path14"
     style="display:inline"
     sodipodi:nodetypes="ssccsssccssssccsccssssssssssssssssss"
     transform="matrix(0.833333,0,0,0.833333,32,32)" />
</svg>
